<mxfile host="app.diagrams.net" modified="2021-05-08T03:39:35.233Z" agent="5.0 (X11; CrOS x86_64 13952.0.0) AppleWebKit/537.36 (KHTML, like Gecko) Chrome/92.0.4492.0 Safari/537.36" etag="BtbdAgE5L0cIijKPLY4z" version="14.6.10" type="github">
  <diagram id="KjdU6J65o2TTOOMjt5w3" name="第 1 页">
    <mxGraphModel dx="1279" dy="745" grid="1" gridSize="10" guides="1" tooltips="1" connect="1" arrows="1" fold="1" page="1" pageScale="1" pageWidth="827" pageHeight="1169" math="0" shadow="0">
      <root>
        <mxCell id="0" />
        <mxCell id="1" parent="0" />
        <mxCell id="6Hx-O6Wj2vFJEhwqw_1p-1" value="开始" style="rounded=0;whiteSpace=wrap;html=1;" vertex="1" parent="1">
          <mxGeometry x="330" y="50" width="120" height="60" as="geometry" />
        </mxCell>
        <mxCell id="6Hx-O6Wj2vFJEhwqw_1p-5" style="edgeStyle=orthogonalEdgeStyle;rounded=0;orthogonalLoop=1;jettySize=auto;html=1;exitX=1;exitY=0.5;exitDx=0;exitDy=0;entryX=0;entryY=0.5;entryDx=0;entryDy=0;" edge="1" parent="1" source="6Hx-O6Wj2vFJEhwqw_1p-2" target="6Hx-O6Wj2vFJEhwqw_1p-3">
          <mxGeometry relative="1" as="geometry" />
        </mxCell>
        <mxCell id="6Hx-O6Wj2vFJEhwqw_1p-2" value="未注册用户" style="rounded=0;whiteSpace=wrap;html=1;" vertex="1" parent="1">
          <mxGeometry x="70" y="210" width="120" height="60" as="geometry" />
        </mxCell>
        <mxCell id="6Hx-O6Wj2vFJEhwqw_1p-3" value="新用户&lt;br&gt;（游客）" style="rounded=0;whiteSpace=wrap;html=1;" vertex="1" parent="1">
          <mxGeometry x="330" y="210" width="120" height="60" as="geometry" />
        </mxCell>
        <mxCell id="6Hx-O6Wj2vFJEhwqw_1p-4" value="存量用户&lt;br&gt;（实名用户、绑卡用户）" style="rounded=0;whiteSpace=wrap;html=1;" vertex="1" parent="1">
          <mxGeometry x="590" y="210" width="120" height="60" as="geometry" />
        </mxCell>
      </root>
    </mxGraphModel>
  </diagram>
</mxfile>
